Coordinates
version=1
nRows=60
nColumns=12
inDegrees=yes

Units are S.I. units (second, meters, Newtons, ...)
Angles are in degrees

endheader
time	SC_y	SC_z	SC_x	AC_y	AC_z	AC_x	GH_y	GH_z	GH_yy	EL_x	PS_y
       0.0              -59.28          7.456          34.37          43.96          7.353          19.38         -42.76          46.64         -39.35          30.11          18.54
   0.02094              -59.28           7.46          34.37          43.95          7.351          19.38         -42.74          46.64         -39.35          30.12          18.54
   0.04187              -59.28          7.463          34.38          43.95          7.347          19.37         -42.73          46.65         -39.35          30.14          18.55
   0.06281              -59.28          7.467          34.38          43.95          7.344          19.37         -42.71          46.65         -39.35          30.16          18.56
   0.08375              -59.28          7.472          34.39          43.95          7.341          19.37         -42.69          46.65         -39.35          30.18          18.56
    0.1047              -59.28          7.476          34.39          43.95          7.337          19.37         -42.67          46.66         -39.35           30.2          18.57
    0.1256              -59.28          7.481           34.4          43.95          7.333          19.37         -42.65          46.66         -39.35          30.22          18.58
    0.1466              -59.28          7.486          34.41          43.94          7.329          19.37         -42.63          46.67         -39.35          30.24          18.59
    0.1675              -59.28          7.492          34.41          43.94          7.324          19.36         -42.61          46.67         -39.35          30.27           18.6
    0.1884              -59.28          7.498          34.42          43.94          7.319          19.36         -42.59          46.68         -39.35          30.29          18.61
    0.2094              -59.28          7.504          34.43          43.94          7.314          19.36         -42.56          46.68         -39.35          30.32          18.62
    0.2303              -59.27          7.511          34.44          43.93          7.309          19.36         -42.53          46.69         -39.35          30.35          18.63
    0.2512              -59.27          7.519          34.45          43.93          7.302          19.35          -42.5           46.7         -39.36          30.38          18.64
    0.2722              -59.27          7.527          34.46          43.93          7.296          19.35         -42.47          46.71         -39.36          30.42          18.66
    0.2931              -59.27          7.535          34.47          43.92          7.289          19.35         -42.43          46.71         -39.36          30.46          18.67
    0.3141              -59.27          7.545          34.48          43.92          7.281          19.34         -42.39          46.72         -39.36           30.5          18.69
     0.335              -59.27          7.555          34.49          43.91          7.273          19.34         -42.35          46.73         -39.36          30.55           18.7
    0.3559              -59.26          7.566          34.51          43.91          7.264          19.34         -42.31          46.74         -39.36          30.59          18.72
    0.3769              -59.26          7.578          34.52           43.9          7.254          19.33         -42.26          46.76         -39.36          30.65          18.74
    0.3978              -59.26          7.592          34.54           43.9          7.243          19.33          -42.2          46.77         -39.36          30.71          18.77
    0.4187              -59.25          7.606          34.56          43.89          7.231          19.32         -42.14          46.78         -39.36          30.77          18.79
    0.4397              -59.25          7.622          34.58          43.89          7.218          19.32         -42.08           46.8         -39.36          30.84          18.82
    0.4606              -59.25           7.64           34.6          43.88          7.203          19.31          -42.0          46.82         -39.36          30.92          18.85
    0.4816              -59.24           7.66          34.62          43.87          7.187           19.3         -41.92          46.83         -39.36          31.01          18.88
    0.5025              -59.24          7.682          34.65          43.86          7.169          19.29         -41.83          46.86         -39.36          31.11          18.92
    0.5234              -59.23          7.706          34.68          43.85          7.149          19.28         -41.73          46.88         -39.36          31.21          18.96
    0.5444              -59.23          7.734          34.71          43.84          7.127          19.27         -41.62           46.9         -39.36          31.34          19.01
    0.5653              -59.22          7.765          34.75          43.83          7.101          19.26         -41.49          46.93         -39.36          31.47          19.06
    0.5862              -59.22          7.799           34.8          43.81          7.073          19.25         -41.35          46.97         -39.36          31.63          19.12
    0.6072              -59.21          7.839          34.84          43.79          7.041          19.23         -41.19          47.01         -39.36           31.8          19.19
    0.6281               -59.2          7.884           34.9          43.77          7.004          19.22         -41.01          47.05         -39.36           32.0          19.26
    0.6491              -59.19          7.936          34.97          43.75          6.961           19.2         -40.79           47.1         -39.36          32.23          19.35
      0.67              -59.18          7.996          35.04          43.73          6.913          19.18         -40.55          47.16         -39.36          32.49          19.45
    0.6909              -59.16          8.065          35.13           43.7          6.856          19.15         -40.26          47.22         -39.36           32.8          19.57
    0.7119              -59.15          8.147          35.23          43.66          6.789          19.12         -39.93           47.3         -39.36          33.16          19.71
    0.7328              -59.13          8.243          35.35          43.62          6.711          19.08         -39.54          47.39         -39.36          33.58          19.87
    0.7537               -59.1          8.357          35.49          43.57          6.618          19.04         -39.07           47.5         -39.36          34.09          20.06
    0.7747              -59.08          8.493          35.66          43.52          6.506          18.99         -38.51          47.63         -39.37          34.69           20.3
    0.7956              -59.04          8.659          35.86          43.45          6.371          18.93         -37.84          47.79         -39.37          35.42          20.58
    0.8165               -59.0           8.86          36.11          43.36          6.206          18.85         -37.01          47.99         -39.37          36.31          20.92
    0.8375              -58.95           9.11          36.42          43.26          6.003          18.76         -35.99          48.22         -39.37          37.41          21.34
    0.8584              -58.89           9.42          36.81          43.12          5.749          18.64         -34.72          48.52         -39.38          38.78          21.87
    0.8794              -58.81          9.812           37.3          42.96          5.429           18.5         -33.12           48.9         -39.38          40.51          22.53
    0.9003              -58.71          10.31          37.92          42.75          5.023          18.31         -31.08          49.38         -39.39          42.71          23.38
    0.9212              -58.59          10.95          38.71          42.48          4.502          18.07         -28.48          49.99         -39.39          45.52          24.46
    0.9422              -58.42          11.76          39.72          42.13          3.835          17.77         -25.13          50.77          -39.4          49.13          25.84
    0.9631              -58.21          12.81          41.02          41.69          2.982          17.38         -20.86          51.77         -39.42          53.74          27.61
     0.984              -57.95          14.12          42.65          41.14           1.91          16.89         -15.49          53.03         -39.43          59.54          29.84
     1.005              -57.63          15.72          44.64          40.46         0.6029          16.29         -8.945          54.57         -39.45          66.61          32.55
     1.026              -57.26          17.57          46.95          39.68        -0.9118          15.59         -1.358          56.34         -39.47           74.8           35.7
     1.047              -56.86          19.58          49.44          38.83         -2.552          14.84          6.857          58.27          -39.5          83.67          39.11
     1.068              -56.46          21.59          51.94          37.98         -4.192          14.09          15.07           60.2         -39.52          92.53          42.51
     1.089              -56.08          23.44          54.24          37.19         -5.707           13.4          22.66          61.97         -39.54          100.7          45.66
      1.11              -55.76          25.04          56.23          36.52         -7.014           12.8           29.2          63.51         -39.56          107.8          48.37
     1.131               -55.5          26.36          57.86          35.96         -8.086          12.31          34.57          64.77         -39.57          113.6           50.6
     1.152              -55.29           27.4          59.16          35.52         -8.939          11.92          38.85          65.77         -39.59          118.2          52.37
     1.172              -55.13          28.22          60.18          35.17         -9.606          11.62          42.19          66.55          -39.6          121.8          53.76
     1.193               -55.0          28.86          60.97           34.9         -10.13          11.38           44.8          67.16          -39.6          124.6          54.84
     1.214               -54.9          29.35          61.59          34.69         -10.53          11.19          46.83          67.64         -39.61          126.8          55.68
     1.235              -54.82          29.74          62.07          34.53         -10.85          11.04          48.43          68.02         -39.61          128.5          56.34
